<?xml version="1.0" encoding="UTF-8"?>
<svg width="32px" height="32px" viewBox="0 0 32 32" version="1.1" xmlns="http://www.w3.org/2000/svg" xmlns:xlink="http://www.w3.org/1999/xlink">
    <!-- Generator: Sketch 55.2 (78181) - https://sketchapp.com -->
    <title>behance</title>
    <desc>Created with Sketch.</desc>
    <g id="portfolio" stroke="none" stroke-width="1" fill="none" fill-rule="evenodd">
        <g id="desktop" transform="translate(-629.000000, -1780.000000)" fill-rule="nonzero">
            <g id="contact" transform="translate(73.000000, 1716.000000)">
                <g id="behance" transform="translate(556.000000, 64.000000)">
                    <path d="M0.5,0.5 L0.5,31.5 L31.5,31.5 L31.5,0.5 L0.5,0.5 Z" id="behance_frame" stroke="#272727"></path>
                    <path d="M25.6737213,11.122688 L19.6602055,11.122688 L19.6602055,9.62229571 L25.6742235,9.62229571 L25.6742235,11.122688 L25.6737213,11.122688 L25.6737213,11.122688 Z M15.6568678,17.2753055 C16.0448869,17.8789934 16.2387849,18.611983 16.2387849,19.4725367 C16.2387849,20.3624594 16.0201684,21.1608004 15.5754027,21.8659904 C15.2924512,22.3326421 14.9411471,22.7268243 14.5190354,23.0441655 C14.0436366,23.4111647 13.4808023,23.6628181 12.8337689,23.7972761 C12.184671,23.9319583 11.4821186,24 10.7253306,24 L4,24 L4,9 L11.211889,9 C13.0297314,9.02970519 14.3184974,9.55873781 15.0795261,10.5976908 C15.5361767,11.2348952 15.7624376,11.9994956 15.7624376,12.8882412 C15.7624376,13.8052909 15.5334426,14.5390651 15.0723281,15.0965699 C14.8158248,15.409147 14.4369007,15.6934761 13.9352769,15.9501177 C14.695078,16.2295146 15.2715827,16.6694877 15.6568678,17.2753055 Z M7.44396297,14.9137429 L10.6039142,14.9137429 C11.2532911,14.9137429 11.7782385,14.7897657 12.1825507,14.5419236 C12.5865839,14.2944737 12.788182,13.8546127 12.788182,13.2230692 C12.788182,12.5253335 12.5212444,12.0622128 11.986086,11.8393117 C11.5260875,11.6844524 10.9375304,11.6046968 10.223372,11.6046968 L7.44396297,11.6046968 L7.44396297,14.9137429 Z M13.0924484,19.258267 C13.0924484,18.4790943 12.7754042,17.9404215 12.1425993,17.6513844 C11.7887286,17.4871091 11.2894482,17.4031499 10.649278,17.3971528 L7.44396297,17.3971528 L7.44396297,21.3945746 L10.5996736,21.3945746 C11.2479903,21.3945746 11.7497816,21.3093263 12.1119105,21.1314875 C12.76497,20.8045062 13.0924484,20.1822105 13.0924484,19.258267 Z M27.9049152,16.8180137 C27.9775641,17.3087658 28.0104291,18.0207936 27.9970934,18.9514628 L20.2089229,18.9514628 C20.2518873,20.0312745 20.6229997,20.7864029 21.3268354,21.2185293 C21.7512906,21.4895191 22.2659154,21.6218473 22.8685336,21.6218473 C23.503961,21.6218473 24.0218779,21.4604865 24.4205544,21.1287972 C24.637776,20.9529761 24.8293863,20.7047977 24.9950505,20.3916601 L27.8496752,20.3916601 C27.7749059,21.029425 27.4311903,21.6762695 26.8135067,22.3335949 C25.8565155,23.3783769 24.5143509,23.9022531 22.7906396,23.9022531 C21.3666752,23.9022531 20.1117228,23.4604304 19.0224346,22.5799798 C17.9367733,21.6964466 17.3915154,20.2635355 17.3915154,18.2758099 C17.3915154,16.4118372 17.8810311,14.9851474 18.8633545,13.9920973 C19.8493049,12.9971976 21.121722,12.5020177 22.6901475,12.5020177 C23.6197976,12.5020177 24.4578275,12.6689273 25.2054646,13.0044838 C25.9507583,13.3403766 26.5667122,13.8690169 27.0518198,14.595561 C27.4908383,15.2353996 27.7731761,15.975227 27.9049152,16.8180137 Z M25.0950962,17.097915 C25.0427577,16.3512499 24.7945683,15.7861226 24.3476823,15.3998991 C23.9044789,15.0126107 23.3507956,14.8181818 22.6901475,14.8181818 C21.9711347,14.8181818 21.4159448,15.0260061 21.021453,15.4344804 C20.624283,15.8421141 20.3771538,16.3963121 20.2758804,17.0979711 L25.0950962,17.0979711 L25.0950962,17.097915 Z" id="Behance" fill="#F16C6C"></path>
                </g>
            </g>
        </g>
    </g>
</svg>