<?xml version="1.0" encoding="UTF-8"?>
<svg width="32px" height="32px" viewBox="0 0 32 32" version="1.1" xmlns="http://www.w3.org/2000/svg" xmlns:xlink="http://www.w3.org/1999/xlink">
    <!-- Generator: Sketch 55.2 (78181) - https://sketchapp.com -->
    <title>dribbble</title>
    <desc>Created with Sketch.</desc>
    <g id="portfolio" stroke="none" stroke-width="1" fill="none" fill-rule="evenodd">
        <g id="desktop" transform="translate(-585.000000, -1780.000000)">
            <g id="contact" transform="translate(73.000000, 1716.000000)">
                <g id="dribbble" transform="translate(512.000000, 64.000000)">
                    <path d="M0.5,0.5 L0.5,31.5 L31.5,31.5 L31.5,0.5 L0.5,0.5 Z" id="dribbble_frame" stroke="#272727" fill-rule="nonzero"></path>
                    <path d="M16,4 C9.37528,4 4,9.37528 4,16 C4,22.62472 9.37528,28 16,28 C22.611712,28 28,22.62472 28,16 C28,9.37528 22.611712,4 16,4 Z M23.92624,9.531448 C25.357912,11.27548 26.21692,13.501096 26.24296,15.908896 C25.90456,15.843808 22.520608,15.154024 19.11064,15.583504 C19.032544,15.414328 18.967456,15.232096 18.889384,15.049888 C18.681136,14.55532 18.446848,14.04772 18.212584,13.56616 C21.986992,12.030376 23.704984,9.817792 23.92624,9.531448 Z M16,5.7700648 C18.60304,5.7700648 20.984824,6.7462 22.79392,8.347072 C22.611712,8.607376 21.062896,10.6768 17.418664,12.043384 C15.739696,8.958784 13.87852,6.43384 13.5922,6.043384 C14.36008,5.8611712 15.167032,5.7700648 16,5.7700648 Z M11.63992,6.733192 C11.913232,7.097608 13.73536,9.635584 15.440344,12.655096 C10.65076,13.930576 6.420832,13.9046 5.9652928,13.9046 C6.629056,10.728856 8.776576,8.086768 11.63992,6.733192 Z M5.7440344,16.013008 C5.7440344,15.908896 5.7440344,15.804784 5.7440344,15.700648 C6.1865512,15.713656 11.15836,15.778744 16.273312,14.24296 C16.572664,14.815624 16.845976,15.401296 17.10628,15.986992 C16.976128,16.02604 16.832968,16.065088 16.702816,16.104112 C11.418664,17.80912 8.607376,22.468552 8.373112,22.859008 C6.7462,21.049888 5.7440344,18.642088 5.7440344,16.013008 Z M16,26.255968 C13.631248,26.255968 11.44468,25.449016 9.713656,24.09544 C9.895888,23.718016 11.97832,19.70932 17.75704,17.691976 C17.78308,17.678968 17.796088,17.678968 17.822128,17.665936 C19.266808,21.401296 19.852504,24.537952 20.008672,25.436008 C18.77224,25.969624 17.418664,26.255968 16,26.255968 Z M21.71368,24.498928 C21.609544,23.874184 21.06292,20.880688 19.722352,17.197408 C22.937104,16.689808 25.748368,17.522776 26.099776,17.63992 C25.657264,20.490232 24.017344,22.950112 21.71368,24.498928 Z" fill="#F16C6C"></path>
                </g>
            </g>
        </g>
    </g>
</svg>