<?xml version="1.0" encoding="UTF-8"?>
<svg width="24px" height="24px" viewBox="0 0 24 24" version="1.1" xmlns="http://www.w3.org/2000/svg" xmlns:xlink="http://www.w3.org/1999/xlink">
    <!-- Generator: Sketch 55.2 (78181) - https://sketchapp.com -->
    <title>dribbble_icon</title>
    <desc>Created with Sketch.</desc>
    <g id="portfolio" stroke="none" stroke-width="1" fill="none" fill-rule="evenodd">
        <g id="desktop" transform="translate(-584.000000, -1644.000000)" fill="#F16C6C">
            <g id="contact" transform="translate(73.000000, 1576.000000)">
                <g id="dribbble_icon" transform="translate(511.000000, 68.000000)">
                    <path d="M12,0 C5.37528,0 0,5.37528 0,12 C0,18.62472 5.37528,24 12,24 C18.611712,24 24,18.62472 24,12 C24,5.37528 18.611712,0 12,0 Z M19.92624,5.531448 C21.357912,7.27548 22.21692,9.501096 22.24296,11.908896 C21.90456,11.843808 18.520608,11.154024 15.11064,11.583504 C15.032544,11.414328 14.967456,11.232096 14.889384,11.049888 C14.681136,10.55532 14.446848,10.04772 14.212584,9.56616 C17.986992,8.030376 19.704984,5.817792 19.92624,5.531448 Z M12,1.7700648 C14.60304,1.7700648 16.984824,2.7462 18.79392,4.347072 C18.611712,4.607376 17.062896,6.6768 13.418664,8.043384 C11.739696,4.958784 9.87852,2.43384 9.5922,2.043384 C10.36008,1.8611712 11.167032,1.7700648 12,1.7700648 Z M7.63992,2.733192 C7.913232,3.097608 9.73536,5.635584 11.440344,8.655096 C6.65076,9.930576 2.420832,9.90459997 1.9652928,9.90459997 C2.629056,6.728856 4.776576,4.086768 7.63992,2.733192 Z M1.7440344,12.013008 C1.7440344,11.908896 1.7440344,11.804784 1.7440344,11.700648 C2.1865512,11.713656 7.15836,11.778744 12.273312,10.24296 C12.572664,10.815624 12.845976,11.401296 13.10628,11.986992 C12.976128,12.02604 12.832968,12.065088 12.702816,12.104112 C7.418664,13.80912 4.607376,18.468552 4.373112,18.859008 C2.7462,17.049888 1.7440344,14.642088 1.7440344,12.013008 Z M12,22.255968 C9.631248,22.255968 7.44468,21.449016 5.713656,20.09544 C5.895888,19.718016 7.97832,15.70932 13.75704,13.691976 C13.78308,13.678968 13.796088,13.678968 13.822128,13.665936 C15.266808,17.401296 15.852504,20.537952 16.008672,21.436008 C14.77224,21.969624 13.418664,22.255968 12,22.255968 Z M17.71368,20.498928 C17.609544,19.874184 17.06292,16.880688 15.722352,13.197408 C18.937104,12.689808 21.748368,13.522776 22.099776,13.63992 C21.657264,16.490232 20.017344,18.950112 17.71368,20.498928 Z" id="Shape"></path>
                </g>
            </g>
        </g>
    </g>
</svg>