<?xml version="1.0" encoding="UTF-8"?>
<svg width="32px" height="32px" viewBox="0 0 32 32" version="1.1" xmlns="http://www.w3.org/2000/svg" xmlns:xlink="http://www.w3.org/1999/xlink">
    <!-- Generator: Sketch 55.2 (78181) - https://sketchapp.com -->
    <title>vimeo</title>
    <desc>Created with Sketch.</desc>
    <g id="portfolio" stroke="none" stroke-width="1" fill="none" fill-rule="evenodd">
        <g id="desktop" transform="translate(-673.000000, -1780.000000)">
            <g id="contact" transform="translate(73.000000, 1716.000000)">
                <g id="vimeo" transform="translate(600.000000, 64.000000)">
                    <path d="M0.5,0.5 L0.5,31.5 L31.5,31.5 L31.5,0.5 L0.5,0.5 Z" id="vimeo_frame" stroke="#272727" fill-rule="nonzero"></path>
                    <path d="M25.4903291,12.0100456 C25.4013286,13.9606582 24.0415198,16.6316754 21.4115028,20.0216973 C18.6922852,23.5629202 16.3916704,25.3333316 14.5096582,25.3333316 C13.3442507,25.3333316 12.3572443,24.2553247 11.5516391,22.0985107 C11.0132356,20.121498 10.4754321,18.1446852 9.93722866,16.1676724 C9.3386248,14.0120585 8.69682065,12.9328515 8.01061622,12.9328515 C7.86101525,12.9328515 7.33741187,13.2482536 6.44100608,13.8766576 L5.5,12.6620498 C6.48700638,11.7930442 7.46081267,10.9242386 8.41881886,10.0542329 C9.73522736,8.91442557 10.7234337,8.3150217 11.382038,8.25442131 C12.9386481,8.10462034 13.8966542,9.17062723 14.2562566,11.452642 C14.6448591,13.9146579 14.9136608,15.4460678 15.0648618,16.0454716 C15.5134647,18.0880848 16.0070679,19.1080914 16.5464714,19.1080914 C16.9650741,19.1080914 17.5938781,18.4456871 18.4322835,17.1208786 C19.269889,15.79567 19.7184919,14.7874635 19.7790922,14.094859 C19.898293,12.9512517 19.4494901,12.3780479 18.4322835,12.3780479 C17.9534804,12.3780479 17.4598773,12.4884487 16.952074,12.7066501 C17.9348803,9.48082923 19.8128925,7.91421911 22.5849104,8.00361969 C24.6399236,8.06402008 25.6087299,9.39942871 25.4903291,12.0100456" fill="#F16C6C"></path>
                </g>
            </g>
        </g>
    </g>
</svg>